PathFileType	4	(X/Y/Z)	s07c0102.trc
DataRate	CameraRate	NumFrames	NumMarkers	Units	OrigDataRate	OrigDataStartFrame	OrigNumFrames
200	200	4	48	mm	200	1500	2000
Frame#	Time	racr			lacr			c7			jug			rlel			rdr			llel			ldr			s2			lic			ric			lasi			rasi			rpsi			lpsi			rgt			lgt			rth1			rth2			rth3			rth4			rlfc			rmfc			rsh1			rsh2			rsh3			rsh4			rlmal			rcal			rtoe			rmt5			lth1			lth2			lth4			lth3			llfc			lmfc			lsh1			lsh2			lsh3			lsh4			llmal			lcal			ltoe			lmt5			SBIKE			LBIKE			RBIKE			
		X1	Y1	Z1	X2	Y2	Z2	X3	Y3	Z3	X4	Y4	Z4	X5	Y5	Z5	X6	Y6	Z6	X7	Y7	Z7	X8	Y8	Z8	X9	Y9	Z9	X10	Y10	Z10	X11	Y11	Z11	X12	Y12	Z12	X13	Y13	Z13	X14	Y14	Z14	X15	Y15	Z15	X16	Y16	Z16	X17	Y17	Z17	X18	Y18	Z18	X19	Y19	Z19	X20	Y20	Z20	X21	Y21	Z21	X22	Y22	Z22	X23	Y23	Z23	X24	Y24	Z24	X25	Y25	Z25	X26	Y26	Z26	X27	Y27	Z27	X28	Y28	Z28	X29	Y29	Z29	X30	Y30	Z30	X31	Y31	Z31	X32	Y32	Z32	X33	Y33	Z33	X34	Y34	Z34	X35	Y35	Z35	X36	Y36	Z36	X37	Y37	Z37	X38	Y38	Z38	X39	Y39	Z39	X40	Y40	Z40	X41	Y41	Z41	X42	Y42	Z42	X43	Y43	Z43	X44	Y44	Z44	X45	Y45	Z45	X46	Y46	Z46	X47	Y47	Z47	X48	Y48	Z48	
1500	7.5000	520.756017	1369.001715	-156.065454	487.779681	1387.501332	-398.851152	467.366039	1422.436247	-273.745051	432.293108	1272.546834	-279.615412	499.356657	1074.367796	39.761949	715.416557	913.647298	-68.624403	500.315605	1080.056461	-555.625642	715.922573	912.504880	-433.387236	-128.481577	1211.624254	-207.043545	2.343532	1294.257701	-359.015330	72.331776	1230.021253	-85.762330	35.910577	1215.927808	-352.543185	80.247571	1181.450006	-106.718919	-89.847451	1245.094971	-156.614831	-102.600068	1271.218165	-256.882624	10.089577	1099.028429	-49.199936	-40.233340	1141.673311	-405.975031	126.081459	992.887472	-55.596981	195.704521	941.431237	-69.250396	234.060163	865.017125	-71.975224	219.929165	964.138445	-86.549249	301.664077	748.961574	-105.761420	281.652661	736.118646	-209.583946	206.799130	643.812309	-78.648161	168.250454	565.211599	-91.604232	96.898153	514.564475	-85.141042	180.632649	555.927931	-130.147196	3.046651	415.207931	-80.447417	-69.549069	428.060577	-109.533781	126.340192	213.293010	-127.844971	49.513719	243.755411	-56.628488	63.184342	1062.282552	-416.390942	149.172786	1041.312083	-418.169458	166.826848	1072.515407	-409.393461	213.668957	979.889402	-415.880115	356.903257	874.053872	-385.287986	353.245555	851.249791	-287.648678	310.835125	729.690505	-409.358884	305.115661	645.532467	-392.378467	258.247188	569.076136	-399.975035	310.707230	645.598180	-350.041685	205.861891	442.285736	-401.149534	139.006763	392.650828	-370.074306	428.134877	411.396882	-365.052807	351.375710	374.380907	-430.235846	-263.586396	970.541748	-236.908564	-83.605818	79.117755	-437.729861	-83.494138	78.759611	-40.178422	
1501	7.5050	520.085862	1369.819782	-153.863182	489.000072	1387.016257	-397.965187	467.960353	1422.083367	-272.597316	433.207046	1272.076423	-277.511097	499.400097	1074.016453	40.284446	715.406172	913.620401	-68.425659	500.673113	1079.566536	-555.464189	716.248535	912.113720	-433.135281	-128.311241	1210.364436	-209.064872	3.701194	1291.413648	-361.096857	72.243826	1228.831482	-87.916893	36.265409	1212.814297	-354.092651	80.164771	1180.715908	-108.564839	-89.855093	1243.840936	-158.738976	-102.286391	1269.569086	-259.486319	10.568730	1099.012261	-50.374414	-40.507074	1137.694743	-407.149232	128.017868	996.178436	-58.166944	199.630557	946.899428	-70.360748	240.188072	871.534909	-72.092279	223.500184	970.553993	-87.095957	309.150231	756.196425	-106.007119	290.110634	742.574734	-209.634325	213.414943	652.232742	-78.830906	173.643318	574.109509	-91.578188	102.218240	524.556587	-85.023194	186.482947	564.183075	-129.739905	7.848888	426.748144	-79.678848	-64.787777	441.891330	-109.855575	123.434026	220.514354	-127.041249	46.921267	253.112640	-56.856111	60.997126	1054.928065	-417.392553	146.240009	1031.108377	-419.586271	164.796458	1061.813750	-411.743422	208.896203	967.890660	-416.628085	349.104526	858.540811	-386.290125	345.376832	837.971792	-289.138382	305.713339	713.267663	-409.572681	301.523167	628.987658	-391.842610	256.043616	551.378486	-399.857427	304.910415	630.666479	-349.576330	206.006333	425.062045	-401.435614	139.956689	374.467798	-370.225041	428.528547	402.337127	-364.507169	352.547331	363.547484	-430.261435	-263.465253	970.543077	-237.053090	-83.575398	79.037054	-437.773643	-83.470102	78.750203	-40.212739	
1502	7.5100	519.194353	1370.848101	-151.548938	490.266535	1386.928625	-397.092887	468.294288	1422.363366	-271.395385	433.617237	1272.310431	-275.662009	499.602535	1074.039133	40.926214	715.317053	913.754009	-67.823034	501.438105	1079.526302	-555.399688	716.470976	911.870949	-432.744944	-128.067720	1208.948741	-211.419432	5.093709	1288.408385	-363.412682	72.065671	1228.044834	-90.520232	36.884963	1209.696769	-356.177913	79.983316	1180.116195	-110.400191	-89.906931	1242.643658	-161.054527	-101.882391	1267.834854	-262.466791	11.089504	1099.022138	-51.592329	-40.498082	1133.757129	-408.580068	130.814666	999.964249	-59.570097	203.715738	952.481542	-71.289197	246.022350	878.193174	-72.330753	226.923569	976.517703	-88.059816	317.022304	763.620217	-106.201538	298.603467	749.528711	-209.783719	220.056875	660.891765	-79.096758	179.438037	583.092113	-91.554438	107.433820	534.511324	-84.943214	192.643785	572.701286	-129.332138	11.985567	437.396933	-79.900968	-59.435188	455.472064	-110.173249	120.085819	226.704663	-127.467631	45.118983	262.798068	-56.800658	58.826382	1047.435559	-418.306413	143.311313	1021.114378	-420.896606	162.836229	1051.307106	-413.860016	204.126876	956.212349	-417.096042	341.750250	843.414898	-387.220395	335.817262	818.548884	-290.593348	300.562116	697.945192	-409.920845	297.749215	613.639937	-391.318028	253.775060	535.251874	-399.311157	299.750083	615.926744	-349.217383	206.026049	408.666224	-401.806247	141.143961	356.701672	-370.118941	428.393157	393.692384	-365.034871	353.303487	352.675074	-430.387139	-263.418868	970.534358	-237.332602	-83.545322	78.951355	-437.776406	-83.465140	78.761562	-40.231515	
1503	7.5150	518.321977	1372.403754	-148.317010	491.564518	1387.302259	-396.236174	468.372273	1423.099700	-270.201828	434.366494	1272.863579	-273.653228	499.947459	1074.420337	41.699564	715.476634	913.632229	-67.764828	502.491789	1079.985435	-555.576045	716.685451	911.758738	-432.455464	-127.797531	1207.625890	-214.041562	6.972575	1285.243923	-366.159787	71.698014	1227.374912	-92.798805	37.590884	1206.521866	-358.442235	79.827017	1179.700269	-112.336066	-89.921612	1241.461960	-163.660924	-101.506614	1266.063891	-265.613039	11.653897	1099.134141	-53.017528	-40.224915	1129.869439	-410.213891	133.720353	1003.771523	-60.647540	207.899143	958.001971	-72.131938	252.117063	884.877125	-72.606045	230.408905	982.719833	-89.123372	324.874365	771.283745	-106.504268	306.842730	756.597794	-210.112633	227.074088	669.726157	-79.402873	185.616040	592.255756	-91.499953	112.743262	544.441933	-85.032120	199.118173	581.295801	-128.941174	17.235036	448.016017	-79.715579	-53.460363	468.693459	-110.374004	117.710531	233.673227	-127.387306	43.941633	272.269324	-56.979221	56.980968	1040.469061	-419.267425	140.616438	1011.767139	-422.096531	161.019079	1041.343968	-415.721406	199.559563	945.116682	-417.372831	334.829134	829.632801	-387.619267	328.800667	807.709816	-291.853694	295.508616	684.476808	-410.284717	293.830816	600.668047	-391.314755	251.646951	521.439555	-400.450638	296.200446	603.980545	-350.234558	205.539612	393.346549	-401.806497	141.464946	340.189305	-369.937751	427.503736	384.798003	-365.625581	353.617872	341.681130	-430.358914	-263.356244	970.510903	-237.620610	-83.520529	78.894776	-437.803152	-83.446931	78.711428	-40.256957	
